<?xml version="1.0" encoding="utf-8"?>
<!-- Generator: Adobe Illustrator 15.0.0, SVG Export Plug-In . SVG Version: 6.00 Build 0)  -->
<!DOCTYPE svg PUBLIC "-//W3C//DTD SVG 1.1//EN" "http://www.w3.org/Graphics/SVG/1.1/DTD/svg11.dtd">
<svg version="1.1" id="Layer_1" xmlns="http://www.w3.org/2000/svg" xmlns:xlink="http://www.w3.org/1999/xlink" x="0px" y="0px"
	 width="1000px" height="1000px" viewBox="0 0 1000 1000" enable-background="new 0 0 1000 1000" xml:space="preserve">
<g>
	<radialGradient id="SVGID_1_" cx="251" cy="170" r="390.9591" gradientUnits="userSpaceOnUse">
		<stop  offset="0" style="stop-color:#FFFFFF"/>
		<stop  offset="0.5315" style="stop-color:#CBCBCB"/>
		<stop  offset="0.6012" style="stop-color:#C4C4C4"/>
		<stop  offset="0.7423" style="stop-color:#A6A6A6"/>
		<stop  offset="1" style="stop-color:#808080"/>
	</radialGradient>
	<circle fill="url(#SVGID_1_)" cx="500" cy="500" r="450"/>
	
		<linearGradient id="SVGID_2_" gradientUnits="userSpaceOnUse" x1="69.314" y1="451.5322" x2="936.0957" y2="451.5322" gradientTransform="matrix(0.8127 0.5827 -0.5827 0.8127 377.27 -143.6064)">
		<stop  offset="0.0123" style="stop-color:#FFFFFF"/>
		<stop  offset="0.0356" style="stop-color:#E3E3E3"/>
		<stop  offset="0.0856" style="stop-color:#9C9C9C"/>
		<stop  offset="0.1043" style="stop-color:#808080"/>
		<stop  offset="0.1902" style="stop-color:#FFFFFF"/>
		<stop  offset="0.1963" style="stop-color:#F5F5F5"/>
		<stop  offset="0.2761" style="stop-color:#A5A5A5"/>
		<stop  offset="0.3067" style="stop-color:#F7F7F7"/>
		<stop  offset="0.3988" style="stop-color:#A5A5A5"/>
		<stop  offset="0.454" style="stop-color:#E7E7E7"/>
		<stop  offset="0.5215" style="stop-color:#DDDDDD"/>
		<stop  offset="0.5767" style="stop-color:#A5A5A5"/>
		<stop  offset="0.6319" style="stop-color:#C5C5C5"/>
		<stop  offset="0.6933" style="stop-color:#A5A5A5"/>
		<stop  offset="0.7362" style="stop-color:#ABABAB"/>
		<stop  offset="0.7669" style="stop-color:#B3B3B3"/>
		<stop  offset="0.8712" style="stop-color:#A5A5A5"/>
	</linearGradient>
	<circle opacity="0.7" fill="url(#SVGID_2_)" cx="500" cy="500" r="433.391"/>
	<radialGradient id="SVGID_3_" cx="499.0649" cy="502.5664" r="413.8195" gradientUnits="userSpaceOnUse">
		<stop  offset="0" style="stop-color:#FFFFFF"/>
		<stop  offset="0.135" style="stop-color:#FFFFFF"/>
		<stop  offset="0.354" style="stop-color:#E3E3E3"/>
		<stop  offset="0.8245" style="stop-color:#9C9C9C"/>
		<stop  offset="1" style="stop-color:#808080"/>
	</radialGradient>
	<circle opacity="0.34" fill="url(#SVGID_3_)" cx="500" cy="503.502" r="420.869"/>
	<g>
		<circle fill="#F7F7F7" stroke="#000000" stroke-width="4" stroke-miterlimit="10" cx="500" cy="500" r="400"/>
	</g>
	<line fill="none" stroke="#000000" stroke-width="4" stroke-miterlimit="10" x1="500" y1="100" x2="500" y2="158"/>
	
		<line fill="none" stroke="#000000" stroke-width="4" stroke-miterlimit="10" x1="396.473" y1="113.629" x2="411.484" y2="169.653"/>
	<line fill="none" stroke="#000000" stroke-width="4" stroke-miterlimit="10" x1="300" y1="153.589" x2="329.001" y2="203.819"/>
	
		<line fill="none" stroke="#000000" stroke-width="4" stroke-miterlimit="10" x1="217.158" y1="217.157" x2="258.171" y2="258.169"/>
	<line fill="none" stroke="#000000" stroke-width="4" stroke-miterlimit="10" x1="153.591" y1="300" x2="203.821" y2="329"/>
	
		<line fill="none" stroke="#000000" stroke-width="4" stroke-miterlimit="10" x1="113.631" y1="396.472" x2="169.655" y2="411.483"/>
	
		<line fill="none" stroke="#000000" stroke-width="4" stroke-miterlimit="10" x1="100.001" y1="499.999" x2="158.002" y2="499.999"/>
	
		<line fill="none" stroke="#000000" stroke-width="4" stroke-miterlimit="10" x1="113.631" y1="603.525" x2="169.655" y2="588.514"/>
	
		<line fill="none" stroke="#000000" stroke-width="4" stroke-miterlimit="10" x1="153.591" y1="699.998" x2="203.821" y2="670.997"/>
	<line fill="none" stroke="#000000" stroke-width="4" stroke-miterlimit="10" x1="217.158" y1="782.84" x2="258.171" y2="741.827"/>
	
		<line fill="none" stroke="#000000" stroke-width="4" stroke-miterlimit="10" x1="300.001" y1="846.406" x2="329.001" y2="796.178"/>
	<line fill="none" stroke="#000000" stroke-width="4" stroke-miterlimit="10" x1="699.999" y1="846.406" x2="671" y2="796.18"/>
	<line fill="none" stroke="#000000" stroke-width="4" stroke-miterlimit="10" x1="782.841" y1="782.84" x2="741.831" y2="741.83"/>
	<line fill="none" stroke="#000000" stroke-width="4" stroke-miterlimit="10" x1="846.408" y1="699.998" x2="796.182" y2="671"/>
	
		<line fill="none" stroke="#000000" stroke-width="4" stroke-miterlimit="10" x1="886.368" y1="603.525" x2="830.349" y2="588.516"/>
	
		<line fill="none" stroke="#000000" stroke-width="4" stroke-miterlimit="10" x1="899.998" y1="499.998" x2="842.002" y2="499.999"/>
	
		<line fill="none" stroke="#000000" stroke-width="4" stroke-miterlimit="10" x1="886.368" y1="396.471" x2="830.349" y2="411.482"/>
	
		<line fill="none" stroke="#000000" stroke-width="4" stroke-miterlimit="10" x1="846.408" y1="299.999" x2="796.182" y2="328.998"/>
	
		<line fill="none" stroke="#000000" stroke-width="4" stroke-miterlimit="10" x1="782.841" y1="217.157" x2="741.832" y2="258.167"/>
	<line fill="none" stroke="#000000" stroke-width="4" stroke-miterlimit="10" x1="699.998" y1="153.59" x2="671.002" y2="203.817"/>
	<line fill="none" stroke="#000000" stroke-width="4" stroke-miterlimit="10" x1="603.526" y1="113.63" x2="588.518" y2="169.651"/>
	<line fill="none" stroke="#000000" stroke-width="4" stroke-miterlimit="10" x1="500" y1="129" x2="500" y2="158"/>
	<line fill="none" stroke="#000000" stroke-width="4" stroke-miterlimit="10" x1="451.574" y1="132.174" x2="455.36" y2="160.926"/>
	
		<line fill="none" stroke="#000000" stroke-width="4" stroke-miterlimit="10" x1="403.978" y1="141.642" x2="411.484" y2="169.653"/>
	
		<line fill="none" stroke="#000000" stroke-width="4" stroke-miterlimit="10" x1="358.023" y1="157.241" x2="369.122" y2="184.032"/>
	
		<line fill="none" stroke="#000000" stroke-width="4" stroke-miterlimit="10" x1="314.499" y1="178.705" x2="328.999" y2="203.818"/>
	
		<line fill="none" stroke="#000000" stroke-width="4" stroke-miterlimit="10" x1="274.148" y1="205.666" x2="291.802" y2="228.672"/>
	
		<line fill="none" stroke="#000000" stroke-width="4" stroke-miterlimit="10" x1="237.662" y1="237.664" x2="258.167" y2="258.169"/>
	<line fill="none" stroke="#000000" stroke-width="4" stroke-miterlimit="10" x1="205.664" y1="274.15" x2="228.671" y2="291.804"/>
	<line fill="none" stroke="#000000" stroke-width="4" stroke-miterlimit="10" x1="178.702" y1="314.501" x2="203.816" y2="329"/>
	<line fill="none" stroke="#000000" stroke-width="4" stroke-miterlimit="10" x1="157.238" y1="358.026" x2="184.03" y2="369.123"/>
	<line fill="none" stroke="#000000" stroke-width="4" stroke-miterlimit="10" x1="141.639" y1="403.979" x2="169.65" y2="411.485"/>
	
		<line fill="none" stroke="#000000" stroke-width="4" stroke-miterlimit="10" x1="132.171" y1="451.577" x2="160.923" y2="455.361"/>
	
		<line fill="none" stroke="#000000" stroke-width="4" stroke-miterlimit="10" x1="128.997" y1="500.002" x2="157.997" y2="500.002"/>
	
		<line fill="none" stroke="#000000" stroke-width="4" stroke-miterlimit="10" x1="132.171" y1="548.428" x2="160.923" y2="544.643"/>
	<line fill="none" stroke="#000000" stroke-width="4" stroke-miterlimit="10" x1="141.639" y1="596.024" x2="169.65" y2="588.519"/>
	<line fill="none" stroke="#000000" stroke-width="4" stroke-miterlimit="10" x1="157.237" y1="641.979" x2="184.03" y2="630.881"/>
	
		<line fill="none" stroke="#000000" stroke-width="4" stroke-miterlimit="10" x1="178.701" y1="685.503" x2="203.816" y2="671.004"/>
	<line fill="none" stroke="#000000" stroke-width="4" stroke-miterlimit="10" x1="205.663" y1="725.854" x2="228.671" y2="708.2"/>
	<line fill="none" stroke="#000000" stroke-width="4" stroke-miterlimit="10" x1="237.661" y1="762.34" x2="258.167" y2="741.834"/>
	
		<line fill="none" stroke="#000000" stroke-width="4" stroke-miterlimit="10" x1="274.147" y1="794.338" x2="291.802" y2="771.331"/>
	<line fill="none" stroke="#000000" stroke-width="4" stroke-miterlimit="10" x1="314.498" y1="821.3" x2="328.998" y2="796.185"/>
	<line fill="none" stroke="#000000" stroke-width="4" stroke-miterlimit="10" x1="685.5" y1="821.301" x2="671.001" y2="796.184"/>
	<line fill="none" stroke="#000000" stroke-width="4" stroke-miterlimit="10" x1="725.851" y1="794.34" x2="708.197" y2="771.33"/>
	
		<line fill="none" stroke="#000000" stroke-width="4" stroke-miterlimit="10" x1="762.337" y1="762.343" x2="741.831" y2="741.833"/>
	
		<line fill="none" stroke="#000000" stroke-width="4" stroke-miterlimit="10" x1="794.335" y1="725.856" x2="771.327" y2="708.199"/>
	
		<line fill="none" stroke="#000000" stroke-width="4" stroke-miterlimit="10" x1="821.297" y1="685.506" x2="796.181" y2="671.002"/>
	<line fill="none" stroke="#000000" stroke-width="4" stroke-miterlimit="10" x1="842.762" y1="641.98" x2="815.967" y2="630.879"/>
	
		<line fill="none" stroke="#000000" stroke-width="4" stroke-miterlimit="10" x1="858.361" y1="596.025" x2="830.347" y2="588.518"/>
	
		<line fill="none" stroke="#000000" stroke-width="4" stroke-miterlimit="10" x1="867.829" y1="548.428" x2="839.073" y2="544.642"/>
	
		<line fill="none" stroke="#000000" stroke-width="4" stroke-miterlimit="10" x1="871.003" y1="500.002" x2="841.999" y2="500.001"/>
	
		<line fill="none" stroke="#000000" stroke-width="4" stroke-miterlimit="10" x1="867.829" y1="451.576" x2="839.073" y2="455.361"/>
	
		<line fill="none" stroke="#000000" stroke-width="4" stroke-miterlimit="10" x1="858.361" y1="403.979" x2="830.346" y2="411.485"/>
	
		<line fill="none" stroke="#000000" stroke-width="4" stroke-miterlimit="10" x1="842.762" y1="358.025" x2="815.966" y2="369.124"/>
	<line fill="none" stroke="#000000" stroke-width="4" stroke-miterlimit="10" x1="821.298" y1="314.5" x2="796.179" y2="329.001"/>
	
		<line fill="none" stroke="#000000" stroke-width="4" stroke-miterlimit="10" x1="794.337" y1="274.149" x2="771.325" y2="291.806"/>
	
		<line fill="none" stroke="#000000" stroke-width="4" stroke-miterlimit="10" x1="762.339" y1="237.663" x2="741.828" y2="258.171"/>
	
		<line fill="none" stroke="#000000" stroke-width="4" stroke-miterlimit="10" x1="725.853" y1="205.665" x2="708.194" y2="228.676"/>
	
		<line fill="none" stroke="#000000" stroke-width="4" stroke-miterlimit="10" x1="685.502" y1="178.704" x2="670.997" y2="203.822"/>
	
		<line fill="none" stroke="#000000" stroke-width="4" stroke-miterlimit="10" x1="641.977" y1="157.239" x2="630.874" y2="184.036"/>
	<line fill="none" stroke="#000000" stroke-width="4" stroke-miterlimit="10" x1="596.021" y1="141.64" x2="588.513" y2="169.656"/>
	
		<line fill="none" stroke="#000000" stroke-width="4" stroke-miterlimit="10" x1="548.424" y1="132.172" x2="544.637" y2="160.929"/>
	
		<line fill="none" stroke="#000000" stroke-width="4" stroke-miterlimit="10" x1="499.998" y1="128.998" x2="499.997" y2="158.003"/>
</g>
</svg>
